# xmcd CD database file
#
# Track frame offsets:
#	150
#	35092
#	60316
#	78096
#	89523
#	105078
#	115061
#	138062
#	149065
#
# Disc length: 2399 seconds
#
# Revision: 0
# Processed by: cddbd v1.5.1PL0 Copyright (c) Steve Scherf et al.
# Submitted via: CDex 1.50beta9
#
DISCID=6c095d09
DTITLE=Los Cumbancheros - 2000
DYEAR=2000
DGENRE=Salsa
TTITLE0=Batuc 1 and M. Carnaval and La felicidad and L'incendie à Rio
TTITLE1=Batuc 2 and Lolo samba and Maria de Bahia and E. Bayana
TTITLE2=Mambo n° 8
TTITLE3=Eso es el amor
TTITLE4=Fiesta tropicale and Oye como va and Quando and El cumbancheros and Brazil
TTITLE5=Batucada 3
TTITLE6=Samba lélé and La marmite and Festa por um rei negro
TTITLE7=Batucada 4
TTITLE8=Brigite Bardot and Recuerdo and Si si no no
EXTD=YEAR: 2000
EXTT0=
EXTT1=
EXTT2=
EXTT3=
EXTT4=
EXTT5=
EXTT6=
EXTT7=
EXTT8=
PLAYORDER=
